<svg width="16" height="16" viewBox="0 0 16 16" fill="none" xmlns="http://www.w3.org/2000/svg">
<path fill-rule="evenodd" clip-rule="evenodd" d="M7.646 4.646C7.69244 4.59944 7.74762 4.56249 7.80836 4.53729C7.86911 4.51208 7.93423 4.49911 8 4.49911C8.06577 4.49911 8.13089 4.51208 8.19163 4.53729C8.25238 4.56249 8.30755 4.59944 8.354 4.646L14.354 10.646C14.4479 10.7399 14.5006 10.8672 14.5006 11C14.5006 11.1328 14.4479 11.2601 14.354 11.354C14.2601 11.4479 14.1328 11.5006 14 11.5006C13.8672 11.5006 13.7399 11.4479 13.646 11.354L8 5.707L2.354 11.354C2.26011 11.4479 2.13277 11.5006 2 11.5006C1.86722 11.5006 1.73989 11.4479 1.646 11.354C1.55211 11.2601 1.49937 11.1328 1.49937 11C1.49937 10.8672 1.55211 10.7399 1.646 10.646L7.646 4.646Z" fill="black"/>
</svg>
