<svg width="24" height="24" viewBox="0 0 24 24" fill="none" xmlns="http://www.w3.org/2000/svg">
<path d="M8.99999 2.4C9.15912 2.4 9.31174 2.46322 9.42426 2.57574C9.53678 2.68826 9.59999 2.84087 9.59999 3V5.4C9.59999 5.55913 9.53678 5.71174 9.42426 5.82427C9.31174 5.93679 9.15912 6 8.99999 6C8.84086 6 8.68825 5.93679 8.57573 5.82427C8.46321 5.71174 8.39999 5.55913 8.39999 5.4V3C8.39999 2.84087 8.46321 2.68826 8.57573 2.57574C8.68825 2.46322 8.84086 2.4 8.99999 2.4ZM4.33199 4.332C4.38773 4.27613 4.45394 4.23179 4.52683 4.20155C4.59973 4.1713 4.67787 4.15573 4.75679 4.15573C4.83571 4.15573 4.91386 4.1713 4.98675 4.20155C5.05965 4.23179 5.12586 4.27613 5.18159 4.332L6.87839 6.03C6.9357 6.08535 6.98141 6.15156 7.01286 6.22476C7.0443 6.29796 7.06085 6.37669 7.06154 6.45636C7.06224 6.53603 7.04706 6.61504 7.01689 6.68877C6.98672 6.76251 6.94217 6.8295 6.88583 6.88584C6.8295 6.94217 6.7625 6.98673 6.68877 7.01689C6.61503 7.04706 6.53602 7.06224 6.45635 7.06155C6.37669 7.06086 6.29795 7.04431 6.22475 7.01286C6.15155 6.98142 6.08534 6.93571 6.02999 6.8784L4.33319 5.1816C4.22071 5.06908 4.15752 4.9165 4.15752 4.7574C4.15752 4.5983 4.22071 4.44572 4.33319 4.3332L4.33199 4.332ZM13.668 4.332C13.7239 4.38774 13.7682 4.45395 13.7984 4.52684C13.8287 4.59974 13.8443 4.67788 13.8443 4.7568C13.8443 4.83572 13.8287 4.91387 13.7984 4.98676C13.7682 5.05966 13.7239 5.12587 13.668 5.1816L11.9688 6.8784C11.9134 6.93571 11.8472 6.98142 11.774 7.01286C11.7008 7.04431 11.6221 7.06086 11.5424 7.06155C11.4628 7.06224 11.3838 7.04706 11.31 7.01689C11.2363 6.98673 11.1693 6.94217 11.113 6.88584C11.0566 6.8295 11.0121 6.76251 10.9819 6.68877C10.9517 6.61504 10.9366 6.53603 10.9372 6.45636C10.9379 6.37669 10.9545 6.29796 10.9859 6.22476C11.0174 6.15156 11.0631 6.08535 11.1204 6.03L12.8172 4.3332C12.9297 4.22072 13.0823 4.15753 13.2414 4.15753C13.4005 4.15753 13.5531 4.22072 13.6656 4.3332L13.668 4.332ZM2.39999 9C2.39999 8.84087 2.46321 8.68826 2.57573 8.57574C2.68825 8.46322 2.84086 8.4 2.99999 8.4H5.39999C5.55912 8.4 5.71174 8.46322 5.82426 8.57574C5.93678 8.68826 5.99999 8.84087 5.99999 9C5.99999 9.15913 5.93678 9.31174 5.82426 9.42427C5.71174 9.53679 5.55912 9.6 5.39999 9.6H2.99999C2.84086 9.6 2.68825 9.53679 2.57573 9.42427C2.46321 9.31174 2.39999 9.15913 2.39999 9ZM8.99999 9.6384V20.7504C8.99978 20.8692 9.03486 20.9854 9.10077 21.0843C9.16668 21.1832 9.26047 21.2602 9.37024 21.3057C9.48001 21.3512 9.60081 21.3631 9.71734 21.3399C9.83387 21.3166 9.94088 21.2593 10.0248 21.1752L13.0968 18.1032C13.5468 17.6531 14.1571 17.4001 14.7936 17.4H18.672C18.7965 17.3999 18.918 17.3611 19.0194 17.2888C19.1209 17.2166 19.1974 17.1146 19.2383 16.997C19.2792 16.8793 19.2824 16.7519 19.2476 16.6323C19.2128 16.5127 19.1416 16.4069 19.044 16.3296L9.97199 9.1668C9.8835 9.09687 9.77709 9.05331 9.66497 9.04109C9.55285 9.02888 9.43955 9.04851 9.33808 9.09775C9.23661 9.14698 9.15107 9.22381 9.09127 9.31944C9.03147 9.41507 8.99984 9.52562 8.99999 9.6384Z" fill="black"/>
</svg>
