<svg width="24" height="25" viewBox="0 0 24 25" fill="none" xmlns="http://www.w3.org/2000/svg">
<path d="M12.5648 6.64844H11.4375C11.3344 6.64844 11.25 6.73282 11.25 6.83594V13.2883C11.25 13.3492 11.2781 13.4055 11.3273 13.4406L15.2016 16.2695C15.2859 16.3305 15.4031 16.3141 15.4641 16.2297L16.1344 15.3156C16.1977 15.2289 16.1789 15.1117 16.0945 15.0531L12.7523 12.6367V6.83594C12.7523 6.73282 12.668 6.64844 12.5648 6.64844ZM17.7164 8.41094L21.3914 9.3086C21.5086 9.33672 21.6234 9.24766 21.6234 9.12813L21.6422 5.34297C21.6422 5.18594 21.4617 5.09688 21.3398 5.19532L17.6461 8.08047C17.6182 8.10207 17.5969 8.1311 17.5848 8.16424C17.5726 8.19738 17.5701 8.23327 17.5774 8.2678C17.5848 8.30232 17.6017 8.33407 17.6263 8.35939C17.6509 8.38471 17.6821 8.40258 17.7164 8.41094ZM21.6469 15.468L20.318 15.0109C20.2716 14.9951 20.2209 14.9979 20.1767 15.019C20.1325 15.04 20.0982 15.0775 20.0813 15.1234C20.0367 15.243 19.9898 15.3602 19.9406 15.4773C19.5234 16.4641 18.9258 17.3523 18.1617 18.1141C17.4061 18.872 16.5107 19.4761 15.525 19.893C14.5039 20.3247 13.4063 20.5463 12.2977 20.5445C11.1773 20.5445 10.0922 20.3266 9.07031 19.893C8.08463 19.4761 7.18917 18.872 6.4336 18.1141C5.67188 17.3523 5.07422 16.4641 4.65469 15.4773C4.22535 14.4557 4.00539 13.3582 4.00781 12.25C4.00781 11.1297 4.22578 10.0422 4.65938 9.02032C5.07656 8.0336 5.67422 7.14532 6.43828 6.3836C7.19386 5.62567 8.08931 5.02154 9.075 4.60469C10.0922 4.1711 11.1797 3.95313 12.3 3.95313C13.4203 3.95313 14.5055 4.1711 15.5273 4.60469C16.513 5.02154 17.4085 5.62567 18.1641 6.3836C18.4031 6.625 18.6281 6.87578 18.8344 7.14063L20.2359 6.04375C18.3914 3.68594 15.5203 2.16953 12.2953 2.17188C6.67969 2.17422 2.17031 6.73516 2.22656 12.3531C2.28281 17.8727 6.7711 22.3281 12.3 22.3281C16.6477 22.3281 20.3508 19.5719 21.7617 15.7117C21.7969 15.6133 21.7453 15.5031 21.6469 15.468Z" fill="black"/>
</svg>
