<svg width="24" height="24" viewBox="0 0 24 24" fill="none" xmlns="http://www.w3.org/2000/svg">
<path d="M18.1267 22.6667C17.8321 22.6664 17.5442 22.5782 17.3 22.4133L12.3267 19.08C12.3022 19.0631 12.2731 19.054 12.2433 19.054C12.2136 19.054 12.1845 19.0631 12.16 19.08L7.18668 22.4133C6.93694 22.5801 6.64238 22.6669 6.34213 22.6623C6.04187 22.6577 5.75012 22.5619 5.50561 22.3875C5.26111 22.2132 5.07542 21.9686 4.9732 21.6863C4.87099 21.4039 4.85709 21.0971 4.93334 20.8067L6.56668 15.0467C6.5744 15.0177 6.57346 14.9871 6.56398 14.9587C6.55451 14.9302 6.5369 14.9052 6.51334 14.8867L1.80668 11.1867C1.5589 11.0021 1.37511 10.7446 1.28107 10.4503C1.18703 10.156 1.18745 9.8396 1.28228 9.54554C1.37712 9.25148 1.5616 8.99448 1.80987 8.81057C2.05814 8.62665 2.35775 8.52505 2.66668 8.52L8.66668 8.29333C8.69618 8.2913 8.72446 8.28077 8.74812 8.26303C8.77177 8.24529 8.7898 8.22108 8.80001 8.19333L10.8667 2.57333C10.9708 2.28843 11.1601 2.04241 11.4087 1.8686C11.6573 1.69478 11.9533 1.60157 12.2567 1.60157C12.56 1.60157 12.8561 1.69478 13.1047 1.8686C13.3533 2.04241 13.5425 2.28843 13.6467 2.57333L15.7133 8.19333C15.7236 8.22108 15.7416 8.24529 15.7652 8.26303C15.7889 8.28077 15.8172 8.2913 15.8467 8.29333L21.8467 8.52C22.1556 8.52505 22.4552 8.62665 22.7035 8.81057C22.9518 8.99448 23.1362 9.25148 23.2311 9.54554C23.3259 9.8396 23.3263 10.156 23.2323 10.4503C23.1382 10.7446 22.9545 11.0021 22.7067 11.1867L18 14.8867C17.9757 14.9046 17.9576 14.9296 17.948 14.9582C17.9385 14.9869 17.938 15.0178 17.9467 15.0467L19.58 20.8067C19.6373 21.0276 19.643 21.2588 19.5966 21.4823C19.5502 21.7057 19.453 21.9156 19.3125 22.0954C19.1719 22.2753 18.9919 22.4204 18.7862 22.5194C18.5806 22.6185 18.3549 22.6689 18.1267 22.6667ZM12.2467 17.72C12.5419 17.729 12.8276 17.8266 13.0667 18L18.04 21.3333C18.0652 21.3525 18.0959 21.363 18.1276 21.3632C18.1593 21.3635 18.1901 21.3535 18.2156 21.3347C18.2411 21.316 18.2599 21.2895 18.2691 21.2592C18.2783 21.2289 18.2774 21.1964 18.2667 21.1667L16.6333 15.4067C16.553 15.1241 16.5589 14.824 16.6504 14.5448C16.7418 14.2657 16.9147 14.0202 17.1467 13.84L21.8533 10.14C21.879 10.122 21.8982 10.0962 21.9082 10.0664C21.9181 10.0367 21.9182 10.0045 21.9085 9.97465C21.8988 9.94481 21.8798 9.91887 21.8543 9.90063C21.8288 9.8824 21.7981 9.87283 21.7667 9.87333L15.7667 9.64667C15.4729 9.63522 15.1892 9.53652 14.9517 9.36317C14.7142 9.18982 14.5338 8.94966 14.4333 8.67333L12.3667 3.05333C12.3574 3.02349 12.3388 2.99741 12.3136 2.97889C12.2884 2.96037 12.2579 2.95038 12.2267 2.95038C12.1954 2.95038 12.165 2.96037 12.1398 2.97889C12.1146 2.99741 12.096 3.02349 12.0867 3.05333L10.04 8.66667C9.93958 8.94299 9.75912 9.18315 9.52166 9.3565C9.28419 9.52985 9.00047 9.62855 8.70668 9.64L2.70668 9.86667C2.67531 9.86616 2.6446 9.87573 2.61907 9.89396C2.59353 9.9122 2.57452 9.93814 2.56483 9.96798C2.55513 9.99782 2.55526 10.03 2.56519 10.0597C2.57512 10.0895 2.59434 10.1153 2.62001 10.1333L7.33334 13.84C7.56464 14.0208 7.73694 14.2663 7.82835 14.5452C7.91976 14.8242 7.92614 15.1241 7.84668 15.4067L6.22001 21.1667C6.2103 21.1955 6.21026 21.2267 6.21988 21.2556C6.2295 21.2845 6.24827 21.3094 6.27334 21.3267C6.2975 21.3473 6.32823 21.3587 6.36001 21.3587C6.39179 21.3587 6.42253 21.3473 6.44668 21.3267L11.42 17.9933C11.6631 17.8321 11.9483 17.7463 12.24 17.7467L12.2467 17.72Z" fill="black"/>
</svg>
