<svg width="24" height="24" viewBox="0 0 24 24" fill="none" xmlns="http://www.w3.org/2000/svg">
<path d="M22.6667 11.1867C22.9144 11.0021 23.0982 10.7446 23.1923 10.4503C23.2863 10.156 23.2859 9.8396 23.191 9.54554C23.0962 9.25148 22.9117 8.99448 22.6635 8.81056C22.4152 8.62665 22.1156 8.52505 21.8067 8.52L15.8067 8.29333C15.7772 8.2913 15.7489 8.28077 15.7252 8.26303C15.7016 8.24529 15.6835 8.22108 15.6733 8.19333L13.6 2.59333C13.4958 2.30843 13.3066 2.06241 13.058 1.8886C12.8094 1.71478 12.5133 1.62157 12.21 1.62157C11.9066 1.62157 11.6106 1.71478 11.362 1.8886C11.1134 2.06241 10.9242 2.30843 10.82 2.59333L8.75332 8.21333C8.7431 8.24108 8.72508 8.26529 8.70142 8.28303C8.67777 8.30077 8.64949 8.3113 8.61999 8.31333L2.61999 8.54C2.31106 8.54505 2.01145 8.64665 1.76318 8.83056C1.51491 9.01448 1.33043 9.27148 1.23559 9.56554C1.14076 9.8596 1.14033 10.176 1.23438 10.4703C1.32842 10.7646 1.51221 11.0221 1.75999 11.2067L6.46665 14.9067C6.49021 14.9252 6.50781 14.9502 6.51729 14.9787C6.52677 15.0071 6.52771 15.0377 6.51998 15.0667L4.89999 20.8067C4.81604 21.099 4.82417 21.41 4.92328 21.6975C5.02239 21.985 5.20765 22.235 5.45388 22.4135C5.70011 22.592 5.99535 22.6903 6.29942 22.695C6.6035 22.6998 6.90165 22.6107 7.15332 22.44L12.1267 19.1067C12.1512 19.0898 12.1802 19.0807 12.21 19.0807C12.2398 19.0807 12.2688 19.0898 12.2933 19.1067L17.2667 22.44C17.5149 22.6166 17.812 22.7114 18.1167 22.7114C18.4213 22.7114 18.7184 22.6166 18.9667 22.44C19.2129 22.2632 19.3984 22.0144 19.4975 21.7279C19.5966 21.4414 19.6044 21.1312 19.52 20.84L17.8867 15.08C17.878 15.0511 17.8785 15.0202 17.888 14.9916C17.8976 14.9629 17.9157 14.9379 17.94 14.92L22.6667 11.1867Z" fill="black"/>
</svg>
