<svg width="24" height="25" viewBox="0 0 24 25" fill="none" xmlns="http://www.w3.org/2000/svg">
<path d="M20.1211 18.1469C19.679 17.0996 19.0374 16.1484 18.232 15.3461C17.4291 14.5415 16.478 13.9 15.4312 13.457C15.4219 13.4523 15.4125 13.45 15.4031 13.4453C16.8633 12.3906 17.8125 10.6727 17.8125 8.73438C17.8125 5.52344 15.2109 2.92188 12 2.92188C8.78906 2.92188 6.1875 5.52344 6.1875 8.73438C6.1875 10.6727 7.13672 12.3906 8.59687 13.4477C8.5875 13.4523 8.57812 13.4547 8.56875 13.4594C7.51875 13.9023 6.57656 14.5375 5.76797 15.3484C4.96338 16.1513 4.32188 17.1024 3.8789 18.1492C3.44372 19.174 3.20902 20.2728 3.1875 21.3859C3.18687 21.411 3.19126 21.4358 3.2004 21.4591C3.20954 21.4824 3.22326 21.5037 3.24073 21.5216C3.2582 21.5395 3.27909 21.5537 3.30214 21.5634C3.3252 21.5731 3.34998 21.5781 3.375 21.5781H4.78125C4.88437 21.5781 4.9664 21.4961 4.96875 21.3953C5.01562 19.5859 5.74219 17.8914 7.02656 16.607C8.35547 15.2781 10.1203 14.5469 12 14.5469C13.8797 14.5469 15.6445 15.2781 16.9734 16.607C18.2578 17.8914 18.9844 19.5859 19.0312 21.3953C19.0336 21.4984 19.1156 21.5781 19.2187 21.5781H20.625C20.65 21.5781 20.6748 21.5731 20.6979 21.5634C20.7209 21.5537 20.7418 21.5395 20.7593 21.5216C20.7767 21.5037 20.7905 21.4824 20.7996 21.4591C20.8087 21.4358 20.8131 21.411 20.8125 21.3859C20.7891 20.2656 20.557 19.1758 20.1211 18.1469ZM12 12.7656C10.9242 12.7656 9.91172 12.3461 9.15 11.5844C8.38828 10.8227 7.96875 9.81016 7.96875 8.73438C7.96875 7.65859 8.38828 6.64609 9.15 5.88437C9.91172 5.12266 10.9242 4.70312 12 4.70312C13.0758 4.70312 14.0883 5.12266 14.85 5.88437C15.6117 6.64609 16.0312 7.65859 16.0312 8.73438C16.0312 9.81016 15.6117 10.8227 14.85 11.5844C14.0883 12.3461 13.0758 12.7656 12 12.7656Z" fill="black"/>
</svg>
