<svg width="24" height="25" viewBox="0 0 24 25" fill="none" xmlns="http://www.w3.org/2000/svg">
<path d="M12 6.25C11.2583 6.25 10.5333 6.46993 9.91661 6.88199C9.29993 7.29404 8.81928 7.87971 8.53545 8.56494C8.25162 9.25016 8.17736 10.0042 8.32206 10.7316C8.46675 11.459 8.8239 12.1272 9.34835 12.6517C9.8728 13.1761 10.541 13.5333 11.2684 13.6779C11.9958 13.8226 12.7498 13.7484 13.4351 13.4645C14.1203 13.1807 14.706 12.7001 15.118 12.0834C15.5301 11.4667 15.75 10.7417 15.75 10C15.75 9.00544 15.3549 8.05161 14.6517 7.34835C13.9484 6.64509 12.9946 6.25 12 6.25ZM12 12.25C11.555 12.25 11.12 12.118 10.75 11.8708C10.38 11.6236 10.0916 11.2722 9.92127 10.861C9.75098 10.4499 9.70642 9.9975 9.79323 9.56105C9.88005 9.12459 10.0943 8.72368 10.409 8.40901C10.7237 8.09434 11.1246 7.88005 11.561 7.79323C11.9975 7.70642 12.4499 7.75097 12.861 7.92127C13.2722 8.09157 13.6236 8.37996 13.8708 8.74997C14.118 9.11998 14.25 9.55499 14.25 10C14.2494 10.5966 14.0122 11.1685 13.5903 11.5903C13.1685 12.0122 12.5966 12.2494 12 12.25Z" fill="black"/>
<path d="M12 1.75C9.9233 1.75 7.89323 2.36581 6.16652 3.51957C4.4398 4.67332 3.09399 6.3132 2.29927 8.23182C1.50455 10.1504 1.29661 12.2616 1.70176 14.2984C2.1069 16.3352 3.10693 18.2062 4.57538 19.6746C6.04383 21.1431 7.91476 22.1431 9.95156 22.5482C11.9884 22.9534 14.0996 22.7455 16.0182 21.9507C17.9368 21.156 19.5767 19.8102 20.7304 18.0835C21.8842 16.3568 22.5 14.3267 22.5 12.25C22.4968 9.4662 21.3896 6.79733 19.4211 4.82889C17.4527 2.86044 14.7838 1.75318 12 1.75ZM7.5 20.0328V19C7.5006 18.4034 7.73784 17.8315 8.15967 17.4097C8.5815 16.9878 9.15345 16.7506 9.75 16.75H14.25C14.8466 16.7506 15.4185 16.9878 15.8403 17.4097C16.2622 17.8315 16.4994 18.4034 16.5 19V20.0328C15.1344 20.8302 13.5814 21.2504 12 21.2504C10.4186 21.2504 8.86563 20.8302 7.5 20.0328ZM17.994 18.9445C17.9791 17.9607 17.5782 17.0222 16.8779 16.3312C16.1776 15.6401 15.2339 15.2519 14.25 15.25H9.75C8.76614 15.2519 7.82238 15.6401 7.12207 16.3312C6.42176 17.0222 6.02095 17.9607 6.006 18.9445C4.64593 17.7301 3.6868 16.1312 3.25563 14.3595C2.82446 12.5878 2.94158 10.727 3.59148 9.02339C4.24139 7.31978 5.39342 5.85375 6.89503 4.81942C8.39665 3.7851 10.177 3.23127 12.0004 3.23127C13.8237 3.23127 15.6041 3.7851 17.1057 4.81942C18.6073 5.85375 19.7594 7.31978 20.4093 9.02339C21.0592 10.727 21.1763 12.5878 20.7451 14.3595C20.314 16.1312 19.3548 17.7301 17.9948 18.9445H17.994Z" fill="black"/>
</svg>
