<svg width="24" height="25" viewBox="0 0 24 25" fill="none" xmlns="http://www.w3.org/2000/svg">
<path d="M12 2.25C6.486 2.25 2 6.736 2 12.25C2 17.764 6.486 22.25 12 22.25C17.514 22.25 22 17.764 22 12.25C22 6.736 17.514 2.25 12 2.25ZM13 18.25H11V16.25H13V18.25ZM13.976 13.365C13.78 13.523 13.591 13.674 13.441 13.824C13.033 14.231 13.001 14.601 13 14.617V14.75H11V14.583C11 14.465 11.029 13.406 12.026 12.409C12.221 12.214 12.463 12.016 12.717 11.81C13.451 11.215 13.933 10.781 13.933 10.183C13.9214 9.67782 13.7125 9.19725 13.3511 8.84412C12.9896 8.49099 12.5043 8.29334 11.999 8.29347C11.4937 8.2936 11.0085 8.4915 10.6472 8.84482C10.286 9.19814 10.0774 9.67881 10.066 10.184H8.066C8.066 8.015 9.831 6.25 12 6.25C14.169 6.25 15.934 8.015 15.934 10.184C15.934 11.781 14.755 12.734 13.976 13.365Z" fill="black"/>
</svg>
