<svg width="24" height="25" viewBox="0 0 24 25" fill="none" xmlns="http://www.w3.org/2000/svg">
<path d="M22.1836 12.0859L13.1273 3.03437L12.5203 2.42734C12.382 2.28994 12.1949 2.21283 12 2.21283C11.805 2.21283 11.618 2.28994 11.4797 2.42734L1.81639 12.0859C1.67467 12.2271 1.56266 12.3952 1.48698 12.5804C1.41131 12.7656 1.37349 12.964 1.37577 13.1641C1.38514 13.9891 2.07186 14.6477 2.89686 14.6477H3.89296V22.2812H20.107V14.6477H21.1242C21.525 14.6477 21.9023 14.4906 22.1859 14.207C22.3256 14.0678 22.4362 13.9023 22.5114 13.7201C22.5867 13.5378 22.625 13.3425 22.6242 13.1453C22.6242 12.7469 22.4672 12.3695 22.1836 12.0859ZM13.3125 20.5937H10.6875V15.8125H13.3125V20.5937ZM18.4195 12.9602V20.5937H14.8125V15.25C14.8125 14.732 14.393 14.3125 13.875 14.3125H10.125C9.60702 14.3125 9.18749 14.732 9.18749 15.25V20.5937H5.58046V12.9602H3.33046L12.0023 4.29531L12.5437 4.83672L20.6719 12.9602H18.4195Z" fill="black"/>
</svg>
