<svg width="24" height="25" viewBox="0 0 24 25" fill="none" xmlns="http://www.w3.org/2000/svg">
<path d="M4.5 22.75H13.5C13.8977 22.7496 14.279 22.5914 14.5602 22.3102C14.8414 22.029 14.9996 21.6477 15 21.25V19H13.5V21.25H4.5V3.25H13.5V5.5H15V3.25C14.9996 2.8523 14.8414 2.471 14.5602 2.18978C14.279 1.90856 13.8977 1.7504 13.5 1.75H4.5C4.1023 1.7504 3.721 1.90856 3.43978 2.18978C3.15856 2.471 3.0004 2.8523 3 3.25V21.25C3.0004 21.6477 3.15856 22.029 3.43978 22.3102C3.721 22.5914 4.1023 22.7496 4.5 22.75Z" fill="black"/>
<path d="M15.4395 15.6895L18.129 13H7.5V11.5H18.129L15.4395 8.8105L16.5 7.75L21 12.25L16.5 16.75L15.4395 15.6895Z" fill="black"/>
</svg>
