<svg width="24" height="24" viewBox="0 0 24 24" fill="none" xmlns="http://www.w3.org/2000/svg">
<path d="M21 4.26562H17.0156V3.23438C17.0156 2.39062 16.7266 1.67969 16.1484 1.10156C15.5703 0.523438 14.8594 0.234375 14.0156 0.234375H9.98438C9.14062 0.234375 8.42969 0.523438 7.85156 1.10156C7.27344 1.67969 6.98438 2.39062 6.98438 3.23438V4.26562H3C2.15625 4.26562 1.44531 4.54688 0.867188 5.10938C0.289062 5.67188 0 6.39062 0 7.26562V11.25C0 11.9062 0.328125 12.2344 0.984375 12.2344V20.25C0.984375 20.7812 1.1875 21.25 1.59375 21.6562C2 22.0625 2.46875 22.2656 3 22.2656H21C21.5312 22.2656 22 22.0625 22.4062 21.6562C22.8125 21.25 23.0156 20.7812 23.0156 20.25V12.2344C23.6719 12.2344 24 11.9062 24 11.25V7.26562C24 6.39062 23.7109 5.67188 23.1328 5.10938C22.5547 4.54688 21.8438 4.26562 21 4.26562ZM9 3.23438C9 2.95312 9.09375 2.71875 9.28125 2.53125C9.46875 2.34375 9.70312 2.25 9.98438 2.25H14.0156C14.2969 2.25 14.5312 2.34375 14.7188 2.53125C14.9062 2.71875 15 2.95312 15 3.23438V4.26562H9V3.23438ZM3 20.25V12.2344H9V15.2344C9 15.7969 9.19531 16.2734 9.58594 16.6641C9.97656 17.0547 10.4531 17.25 11.0156 17.25H12.9844C13.5469 17.25 14.0234 17.0547 14.4141 16.6641C14.8047 16.2734 15 15.7969 15 15.2344V12.2344H21V20.25H3ZM11.0156 15.2344V12.2344H12.9844V15.2344H11.0156ZM21.9844 10.2656H2.01562V7.26562C2.01562 6.57812 2.34375 6.23438 3 6.23438H21C21.6562 6.23438 21.9844 6.57812 21.9844 7.26562V10.2656Z" fill="black"/>
</svg>
